<?xml version="1.0" encoding="UTF-8" standalone="no"?>
<svg width="132px" height="35px" viewBox="0 0 132 35" version="1.1" xmlns="http://www.w3.org/2000/svg" xmlns:xlink="http://www.w3.org/1999/xlink" xmlns:sketch="http://www.bohemiancoding.com/sketch/ns">
    <!-- Generator: Sketch 3.5.2 (25235) - http://www.bohemiancoding.com/sketch -->
    <title>uc-logo-lib-white</title>
    <desc>Created with Sketch.</desc>
    <defs></defs>
    <g id="Page-1" stroke="none" stroke-width="1" fill="none" fill-rule="evenodd" sketch:type="MSPage">
        <g id="uc-logo-lib-white" sketch:type="MSLayerGroup" transform="translate(0.000000, -1.000000)" fill="#002855">
            <g id="Group" sketch:type="MSShapeGroup">
                <path d="M58.9,5.9 L58.9,5.9 C59,6.5 60,11.3 60,11.3 L57.8,11.3 L58.9,5.9 L58.9,5.9 Z M50.5,16.9 L56.3,16.9 L56.7,15 L60.8,15 L61.4,16.9 L67.2,16.9 L61.8,1.4 L55.7,1.4 L50.5,16.9 L50.5,16.9 Z" id="Shape"></path>
                <path d="M36.3,1.4 L41.9,1.4 C47,1.4 50.9,3.7 50.9,9.4 C50.9,14 47.7,16.9 43.3,16.9 L36.3,16.9 L36.3,1.4 L36.3,1.4 Z M41.8,12.5 L42.2,12.5 C44,12.5 45.4,11.4 45.4,9.4 C45.4,7.2 44.2,6 42.2,6 L41.9,6 L41.9,12.5 L41.8,12.5 Z" id="Shape"></path>
                <path d="M32.9,1.9 L33.2,4.4 C33.3,5 33.6,6.5 33.2,6.3 C32.9,6.2 32.7,5.5 32.5,4.9 C32.4,4.6 31.8,3.2 31.7,3.1 C31,2.6 29.3,2 28.1,2 C24.6,2 22.3,4.5 22.3,9 C22.3,12.2 23.9,16.1 27.9,16.1 C29.3,16.1 32.1,15.7 32.9,13.7 C33.2,12.8 33.6,12 33.8,12.2 C34,12.4 33.8,13.1 33.6,13.5 C33.1,15.3 33.1,15.9 32.9,16 C31.1,16.9 28.8,17.2 26.7,17.2 C20.2,17.2 18,13.5 18,9.8 C18,3.4 22,0.8 28.3,1 C29.9,1.1 31.5,1.3 32.9,1.9" id="Shape"></path>
                <path d="M13.8,2.2 L12.8,1.8 C12.4,1.5 12.9,1.4 12.9,1.4 C12.9,1.4 14.4,1.7 18.1,1.4 C18.1,1.4 18.4,1.5 18.2,1.7 L17,2.2 C16.2,2.5 16.2,2.3 16.2,3.2 L16.2,11.1 C16.2,17.3 9.7,17.1 8.5,17.1 C7.9,17.1 2,17.1 2,12.1 L2,3.8 C2,2.3 2.2,2.4 1.7,2.2 L0.1,1.7 C0.1,1.7 -0.2,1.4 0.3,1.4 C1.5,1.5 3.3,1.7 7.4,1.4 C7.4,1.4 7.8,1.5 7.5,1.7 L6.3,2.1 C5.4,2.5 5.5,2.2 5.5,3.1 L5.5,11.3 C5.5,13.3 6.6,15.8 9.9,15.8 C14.5,15.8 14.5,11.9 14.5,11.1 L14.5,2.9 C14.6,2.2 14.5,2.5 13.8,2.2" id="Shape"></path>
                <path d="M87.7,15.7 L89.3,11.6 L89.6,11.8 C90.6,12.6 91.9,13.2 93.2,13.3 C94.3,13.3 94.9,13 94.7,12.1 C94.6,11.4 93.8,11.3 93.3,11.2 L92.1,11 C90,10.6 88.2,9.3 88.2,6.9 C88.2,3.2 91.5,1.2 94.7,1.2 C96.4,1.2 98,1.6 99.5,2.6 L98.1,6.2 C97.3,5.7 96.2,4.9 94.7,4.9 C94.2,4.9 93.1,5.1 93.5,6.2 C93.7,6.7 94.3,6.9 94.8,7 L96,7.2 C98.3,7.7 100,9 100,11.6 C100,15.3 96.7,17.1 93.5,17.1 C91.6,17.1 89.4,16.6 87.7,15.7" id="Shape"></path>
                <rect id="Rectangle-path" x="81" y="1.4" width="5.5" height="15.5"></rect>
                <path d="M74.7,1.4 L80.4,1.4 L74.6,16.9 L69.9,16.9 L64.1,1.4 L69.8,1.4 L72.2,10.8 L74.7,1.4 Z" id="Shape"></path>
            </g>
            <g id="Group" transform="translate(2.000000, 26.000000)" sketch:type="MSShapeGroup">
                <path d="M0.3,1 L2,1 L2,5.8 C2,6.9 2.6,7.7 3.9,7.7 C5.2,7.7 5.8,6.9 5.8,5.8 L5.8,1 L7.5,1 L7.5,5.8 C7.5,7.8 6.3,9.1 3.9,9.1 C1.5,9.1 0.3,7.7 0.3,5.8 L0.3,1 L0.3,1 Z" id="Shape"></path>
                <path d="M11.8,3.8 L11.8,9 L10.1,9 L10.1,1 L11.9,1 L15.6,6 L15.6,1 L17.3,1 L17.3,9 L15.7,9 L11.8,3.8 L11.8,3.8 Z" id="Shape"></path>
                <path d="M19.8,1 L21.5,1 L21.5,9 L19.8,9 L19.8,1 L19.8,1 Z" id="Shape"></path>
                <path d="M23,1 L24.9,1 L27.1,7.2 L29.3,1 L31.2,1 L28.1,9 L26,9 L23,1 L23,1 Z" id="Shape"></path>
                <path d="M32.5,1 L38.2,1 L38.2,2.5 L34.2,2.5 L34.2,4.2 L38.1,4.2 L38.1,5.7 L34.2,5.7 L34.2,7.5 L38.2,7.5 L38.2,9 L32.5,9 L32.5,1 L32.5,1 Z" id="Shape"></path>
                <path d="M42.9,6.1 L41.7,6.1 L41.7,9 L40,9 L40,1 L43.7,1 C45.4,1 46.4,2.1 46.4,3.6 C46.4,5 45.5,5.8 44.6,6 L46.4,9 L44.4,9 L42.9,6.1 L42.9,6.1 Z M43.5,2.5 L41.7,2.5 L41.7,4.7 L43.5,4.7 C44.2,4.7 44.7,4.3 44.7,3.6 C44.7,2.9 44.1,2.5 43.5,2.5 L43.5,2.5 Z" id="Shape"></path>
                <path d="M48.3,6.6 C48.9,7.2 49.7,7.7 50.8,7.7 C51.7,7.7 52.2,7.3 52.2,6.8 C52.2,6.2 51.5,6 50.6,5.8 C49.3,5.5 47.6,5.1 47.6,3.3 C47.6,2 48.8,0.9 50.6,0.9 C51.9,0.9 52.9,1.3 53.7,2 L52.8,3.2 C52.2,2.6 51.3,2.3 50.5,2.3 C49.8,2.3 49.4,2.6 49.4,3.1 C49.4,3.6 50.1,3.8 51,4 C52.3,4.3 54,4.7 54,6.5 C54,8 53,9.1 50.8,9.1 C49.3,9.1 48.2,8.6 47.4,7.8 L48.3,6.6 L48.3,6.6 Z" id="Shape"></path>
                <path d="M54.9,1 L56.6,1 L56.6,9 L54.9,9 L54.9,1 L54.9,1 Z" id="Shape"></path>
                <path d="M60.5,2.5 L58.2,2.5 L58.2,1 L64.6,1 L64.6,2.5 L62.3,2.5 L62.3,9 L60.6,9 L60.6,2.5 L60.5,2.5 Z" id="Shape"></path>
                <path d="M68.1,5.7 L65,1 L67,1 L69,4.2 L71,1 L72.9,1 L69.8,5.7 L69.8,9 L68.1,9 L68.1,5.7 L68.1,5.7 Z" id="Shape"></path>
                <path d="M78.6,1 L80.3,1 L80.3,7.5 L83.7,7.5 L83.7,9 L78.6,9 L78.6,1 L78.6,1 Z" id="Shape"></path>
                <path d="M85.6,1 L87.3,1 L87.3,9 L85.6,9 L85.6,1 L85.6,1 Z" id="Shape"></path>
                <path d="M89.9,1 L94.1,1 C95.6,1 96.4,2 96.4,3 C96.4,4 95.8,4.7 95,4.8 C95.9,4.9 96.5,5.8 96.5,6.8 C96.5,8 95.7,9 94.2,9 L89.9,9 L89.9,1 L89.9,1 Z M93.7,4.2 C94.3,4.2 94.6,3.8 94.6,3.3 C94.6,2.8 94.2,2.4 93.7,2.4 L91.6,2.4 L91.6,4.1 L93.7,4.1 L93.7,4.2 Z M93.7,7.5 C94.3,7.5 94.7,7.2 94.7,6.6 C94.7,6.1 94.3,5.7 93.7,5.7 L91.5,5.7 L91.5,7.6 L93.7,7.6 L93.7,7.5 Z" id="Shape"></path>
                <path d="M101.2,6.1 L100,6.1 L100,9 L98.3,9 L98.3,1 L102,1 C103.7,1 104.7,2.1 104.7,3.6 C104.7,5 103.8,5.8 102.9,6 L104.7,9 L102.7,9 L101.2,6.1 L101.2,6.1 Z M101.8,2.5 L100,2.5 L100,4.7 L101.8,4.7 C102.5,4.7 103,4.3 103,3.6 C103,2.9 102.5,2.5 101.8,2.5 L101.8,2.5 Z" id="Shape"></path>
                <path d="M111.5,7.6 L108.1,7.6 L107.6,9 L105.7,9 L108.8,1 L110.9,1 L114,9 L112,9 L111.5,7.6 L111.5,7.6 Z M108.5,6.1 L111,6.1 L109.8,2.7 L108.5,6.1 L108.5,6.1 Z" id="Shape"></path>
                <path d="M117.9,6.1 L116.7,6.1 L116.7,9 L115,9 L115,1 L118.7,1 C120.4,1 121.4,2.1 121.4,3.6 C121.4,5 120.5,5.8 119.6,6 L121.4,9 L119.4,9 L117.9,6.1 L117.9,6.1 Z M118.4,2.5 L116.6,2.5 L116.6,4.7 L118.4,4.7 C119.1,4.7 119.6,4.3 119.6,3.6 C119.6,2.9 119.1,2.5 118.4,2.5 L118.4,2.5 Z" id="Shape"></path>
                <path d="M125.1,5.7 L122,1 L123.9,1 L125.9,4.2 L127.9,1 L129.8,1 L126.7,5.7 L126.7,9 L125,9 L125,5.7 L125.1,5.7 Z" id="Shape"></path>
            </g>
            <rect id="Rectangle-path" sketch:type="MSShapeGroup" x="2" y="22" width="129" height="1.2"></rect>
        </g>
    </g>
</svg>